# xmcd
#
# Track frame offsets: 
#        150
#        9723
#        31896
#        46133
#        66331
#        90061
#        103111
#        115444
#        140504
#        156829
#
# Disc length: 2352 seconds
#
# Revision: 0
# Processed by: cddbd v1.5.1PL2 Copyright (c) Steve Scherf et al.
# Submitted via: ExactAudioCopy v0.95a5
#
DISCID=7c092e0a
DTITLE=River City Blues Band - River City Blues Band
DYEAR=2000
DGENRE=Blues
TTITLE0=I've Been Had
TTITLE1=Walkin' Blues
TTITLE2=My Baby In New Orleans
TTITLE3=Pipeline
TTITLE4=Got To Find A Baby
TTITLE5=Can't Stand The Pain
TTITLE6=Can't You See
TTITLE7=Steelworkin' Blues
TTITLE8=Treat Her Right
TTITLE9=Little Ditty
EXTD=
EXTT0=
EXTT1=
EXTT2=
EXTT3=
EXTT4=
EXTT5=
EXTT6=
EXTT7=
EXTT8=
EXTT9=
PLAYORDER=
